<?xml version="1.0" encoding="UTF-8" standalone="no"?>
<!DOCTYPE svg PUBLIC "-//W3C//DTD SVG 1.1//EN"
 "http://www.w3.org/Graphics/SVG/1.1/DTD/svg11.dtd">
<!-- Generated by graphviz version 2.47.0 (20210316.0004)
 -->
<!-- Title: dependencies Pages: 1 -->
<svg width="2080pt" height="284pt"
 viewBox="0.00 0.00 2080.00 284.00" xmlns="http://www.w3.org/2000/svg" xmlns:xlink="http://www.w3.org/1999/xlink">
<g id="graph0" class="graph" transform="scale(1 1) rotate(0) translate(4 280)">
<title>dependencies</title>
<polygon fill="white" stroke="transparent" points="-4,4 -4,-280 2076,-280 2076,4 -4,4"/>
<text text-anchor="start" x="1015.01" y="-42.4" font-family="sans-serif" font-weight="bold" font-size="14.00">Legend</text>
<polygon fill="#ffffb3" stroke="transparent" points="802,-10 802,-30 822,-30 822,-10 802,-10"/>
<text text-anchor="start" x="825.63" y="-15.4" font-family="sans-serif" font-size="14.00"> &#160;Declarations</text>
<polygon fill="#8dd3c7" stroke="transparent" points="915,-10 915,-30 935,-30 935,-10 915,-10"/>
<text text-anchor="start" x="938.73" y="-15.4" font-family="sans-serif" font-size="14.00"> &#160;Module</text>
<polygon fill="#80b1d3" stroke="transparent" points="1001,-10 1001,-30 1021,-30 1021,-10 1001,-10"/>
<text text-anchor="start" x="1024.78" y="-15.4" font-family="sans-serif" font-size="14.00"> &#160;Bootstrap</text>
<polygon fill="#fdb462" stroke="transparent" points="1098,-10 1098,-30 1118,-30 1118,-10 1098,-10"/>
<text text-anchor="start" x="1121.67" y="-15.4" font-family="sans-serif" font-size="14.00"> &#160;Providers</text>
<polygon fill="#fb8072" stroke="transparent" points="1194,-10 1194,-30 1214,-30 1214,-10 1194,-10"/>
<text text-anchor="start" x="1217.73" y="-15.4" font-family="sans-serif" font-size="14.00"> &#160;Exports</text>
<g id="clust1" class="cluster">
<title>cluster_AppModule</title>
<polygon fill="none" stroke="black" stroke-dasharray="1,5" points="8,-70 8,-268 2064,-268 2064,-70 8,-70"/>
</g>
<g id="clust2" class="cluster">
<title>cluster_AppModule_declarations</title>
<polygon fill="none" stroke="black" points="168,-78 168,-130 2056,-130 2056,-78 168,-78"/>
</g>
<g id="clust16" class="cluster">
<title>cluster_AppModule_imports</title>
<polygon fill="none" stroke="black" points="16,-78 16,-130 160,-130 160,-78 16,-78"/>
</g>
<g id="clust18" class="cluster">
<title>cluster_AppModule_bootstrap</title>
<polygon fill="none" stroke="black" points="1036,-208 1036,-260 1160,-260 1160,-208 1036,-208"/>
</g>
<!-- AlertaComponent -->
<g id="node1" class="node">
<title>AlertaComponent</title>
<polygon fill="#ffffb3" stroke="black" points="2048.31,-122 1931.69,-122 1931.69,-86 2048.31,-86 2048.31,-122"/>
<text text-anchor="middle" x="1990" y="-99.8" font-family="Times,serif" font-size="14.00">AlertaComponent</text>
</g>
<!-- AppModule -->
<g id="node14" class="node">
<title>AppModule</title>
<polygon fill="#8dd3c7" stroke="black" points="1139.66,-187 1136.66,-191 1115.66,-191 1112.66,-187 1056.34,-187 1056.34,-151 1139.66,-151 1139.66,-187"/>
<text text-anchor="middle" x="1098" y="-164.8" font-family="Times,serif" font-size="14.00">AppModule</text>
</g>
<!-- AlertaComponent&#45;&gt;AppModule -->
<g id="edge1" class="edge">
<title>AlertaComponent&#45;&gt;AppModule</title>
<path fill="none" stroke="black" d="M1990,-122.09C1990,-145.13 1990,-182 1990,-182 1990,-182 1149.83,-182 1149.83,-182"/>
<polygon fill="black" stroke="black" points="1149.83,-178.5 1139.83,-182 1149.83,-185.5 1149.83,-178.5"/>
</g>
<!-- AppComponent -->
<g id="node2" class="node">
<title>AppComponent</title>
<polygon fill="#ffffb3" stroke="black" points="1913.94,-122 1808.06,-122 1808.06,-86 1913.94,-86 1913.94,-122"/>
<text text-anchor="middle" x="1861" y="-99.8" font-family="Times,serif" font-size="14.00">AppComponent</text>
</g>
<!-- AppComponent&#45;&gt;AppModule -->
<g id="edge2" class="edge">
<title>AppComponent&#45;&gt;AppModule</title>
<path fill="none" stroke="black" d="M1861,-122.04C1861,-143.66 1861,-177 1861,-177 1861,-177 1149.84,-177 1149.84,-177"/>
<polygon fill="black" stroke="black" points="1149.84,-173.5 1139.84,-177 1149.84,-180.5 1149.84,-173.5"/>
</g>
<!-- CadastrarComponent -->
<g id="node3" class="node">
<title>CadastrarComponent</title>
<polygon fill="#ffffb3" stroke="black" points="1790.47,-122 1655.53,-122 1655.53,-86 1790.47,-86 1790.47,-122"/>
<text text-anchor="middle" x="1723" y="-99.8" font-family="Times,serif" font-size="14.00">CadastrarComponent</text>
</g>
<!-- CadastrarComponent&#45;&gt;AppModule -->
<g id="edge3" class="edge">
<title>CadastrarComponent&#45;&gt;AppModule</title>
<path fill="none" stroke="black" d="M1723,-122.22C1723,-142.37 1723,-172 1723,-172 1723,-172 1149.98,-172 1149.98,-172"/>
<polygon fill="black" stroke="black" points="1149.98,-168.5 1139.98,-172 1149.98,-175.5 1149.98,-168.5"/>
</g>
<!-- DeleteComponent -->
<g id="node4" class="node">
<title>DeleteComponent</title>
<polygon fill="#ffffb3" stroke="black" points="1637.86,-122 1520.14,-122 1520.14,-86 1637.86,-86 1637.86,-122"/>
<text text-anchor="middle" x="1579" y="-99.8" font-family="Times,serif" font-size="14.00">DeleteComponent</text>
</g>
<!-- DeleteComponent&#45;&gt;AppModule -->
<g id="edge4" class="edge">
<title>DeleteComponent&#45;&gt;AppModule</title>
<path fill="none" stroke="black" d="M1579,-122.22C1579,-140.83 1579,-167 1579,-167 1579,-167 1149.84,-167 1149.84,-167"/>
<polygon fill="black" stroke="black" points="1149.84,-163.5 1139.84,-167 1149.84,-170.5 1149.84,-163.5"/>
</g>
<!-- EntrarComponent -->
<g id="node5" class="node">
<title>EntrarComponent</title>
<polygon fill="#ffffb3" stroke="black" points="1502.31,-122 1385.69,-122 1385.69,-86 1502.31,-86 1502.31,-122"/>
<text text-anchor="middle" x="1444" y="-99.8" font-family="Times,serif" font-size="14.00">EntrarComponent</text>
</g>
<!-- EntrarComponent&#45;&gt;AppModule -->
<g id="edge5" class="edge">
<title>EntrarComponent&#45;&gt;AppModule</title>
<path fill="none" stroke="black" d="M1444,-122.03C1444,-139.06 1444,-162 1444,-162 1444,-162 1149.74,-162 1149.74,-162"/>
<polygon fill="black" stroke="black" points="1149.74,-158.5 1139.74,-162 1149.74,-165.5 1149.74,-158.5"/>
</g>
<!-- InicioComponent -->
<g id="node6" class="node">
<title>InicioComponent</title>
<polygon fill="#ffffb3" stroke="black" points="1367.99,-122 1254.01,-122 1254.01,-86 1367.99,-86 1367.99,-122"/>
<text text-anchor="middle" x="1311" y="-99.8" font-family="Times,serif" font-size="14.00">InicioComponent</text>
</g>
<!-- InicioComponent&#45;&gt;AppModule -->
<g id="edge6" class="edge">
<title>InicioComponent&#45;&gt;AppModule</title>
<path fill="none" stroke="black" d="M1311,-122.24C1311,-137.57 1311,-157 1311,-157 1311,-157 1149.83,-157 1149.83,-157"/>
<polygon fill="black" stroke="black" points="1149.83,-153.5 1139.83,-157 1149.83,-160.5 1149.83,-153.5"/>
</g>
<!-- MenuComponent -->
<g id="node7" class="node">
<title>MenuComponent</title>
<polygon fill="#ffffb3" stroke="black" points="1235.99,-122 1122.01,-122 1122.01,-86 1235.99,-86 1235.99,-122"/>
<text text-anchor="middle" x="1179" y="-99.8" font-family="Times,serif" font-size="14.00">MenuComponent</text>
</g>
<!-- MenuComponent&#45;&gt;AppModule -->
<g id="edge7" class="edge">
<title>MenuComponent&#45;&gt;AppModule</title>
<path fill="none" stroke="black" d="M1130.92,-122.11C1130.92,-122.11 1130.92,-140.99 1130.92,-140.99"/>
<polygon fill="black" stroke="black" points="1127.42,-140.99 1130.92,-150.99 1134.42,-140.99 1127.42,-140.99"/>
</g>
<!-- PostagemDeleteComponent -->
<g id="node8" class="node">
<title>PostagemDeleteComponent</title>
<polygon fill="#ffffb3" stroke="black" points="1104.3,-122 931.7,-122 931.7,-86 1104.3,-86 1104.3,-122"/>
<text text-anchor="middle" x="1018" y="-99.8" font-family="Times,serif" font-size="14.00">PostagemDeleteComponent</text>
</g>
<!-- PostagemDeleteComponent&#45;&gt;AppModule -->
<g id="edge8" class="edge">
<title>PostagemDeleteComponent&#45;&gt;AppModule</title>
<path fill="none" stroke="black" d="M1080.16,-122.11C1080.16,-122.11 1080.16,-140.99 1080.16,-140.99"/>
<polygon fill="black" stroke="black" points="1076.66,-140.99 1080.16,-150.99 1083.66,-140.99 1076.66,-140.99"/>
</g>
<!-- PostagemEditComponent -->
<g id="node9" class="node">
<title>PostagemEditComponent</title>
<polygon fill="#ffffb3" stroke="black" points="913.6,-122 754.4,-122 754.4,-86 913.6,-86 913.6,-122"/>
<text text-anchor="middle" x="834" y="-99.8" font-family="Times,serif" font-size="14.00">PostagemEditComponent</text>
</g>
<!-- PostagemEditComponent&#45;&gt;AppModule -->
<g id="edge9" class="edge">
<title>PostagemEditComponent&#45;&gt;AppModule</title>
<path fill="none" stroke="black" d="M834,-122.24C834,-137.57 834,-157 834,-157 834,-157 1046.17,-157 1046.17,-157"/>
<polygon fill="black" stroke="black" points="1046.17,-160.5 1056.17,-157 1046.17,-153.5 1046.17,-160.5"/>
</g>
<!-- RodapeComponent -->
<g id="node10" class="node">
<title>RodapeComponent</title>
<polygon fill="#ffffb3" stroke="black" points="736.1,-122 611.9,-122 611.9,-86 736.1,-86 736.1,-122"/>
<text text-anchor="middle" x="674" y="-99.8" font-family="Times,serif" font-size="14.00">RodapeComponent</text>
</g>
<!-- RodapeComponent&#45;&gt;AppModule -->
<g id="edge10" class="edge">
<title>RodapeComponent&#45;&gt;AppModule</title>
<path fill="none" stroke="black" d="M674,-122.03C674,-139.06 674,-162 674,-162 674,-162 1046.18,-162 1046.18,-162"/>
<polygon fill="black" stroke="black" points="1046.18,-165.5 1056.18,-162 1046.18,-158.5 1046.18,-165.5"/>
</g>
<!-- TemaComponent -->
<g id="node11" class="node">
<title>TemaComponent</title>
<polygon fill="#ffffb3" stroke="black" points="593.7,-122 480.3,-122 480.3,-86 593.7,-86 593.7,-122"/>
<text text-anchor="middle" x="537" y="-99.8" font-family="Times,serif" font-size="14.00">TemaComponent</text>
</g>
<!-- TemaComponent&#45;&gt;AppModule -->
<g id="edge11" class="edge">
<title>TemaComponent&#45;&gt;AppModule</title>
<path fill="none" stroke="black" d="M537,-122.22C537,-140.83 537,-167 537,-167 537,-167 1046.29,-167 1046.29,-167"/>
<polygon fill="black" stroke="black" points="1046.29,-170.5 1056.29,-167 1046.29,-163.5 1046.29,-170.5"/>
</g>
<!-- TemaEditComponent -->
<g id="node12" class="node">
<title>TemaEditComponent</title>
<polygon fill="#ffffb3" stroke="black" points="462.04,-122 325.96,-122 325.96,-86 462.04,-86 462.04,-122"/>
<text text-anchor="middle" x="394" y="-99.8" font-family="Times,serif" font-size="14.00">TemaEditComponent</text>
</g>
<!-- TemaEditComponent&#45;&gt;AppModule -->
<g id="edge12" class="edge">
<title>TemaEditComponent&#45;&gt;AppModule</title>
<path fill="none" stroke="black" d="M394,-122.22C394,-142.37 394,-172 394,-172 394,-172 1046.33,-172 1046.33,-172"/>
<polygon fill="black" stroke="black" points="1046.33,-175.5 1056.33,-172 1046.33,-168.5 1046.33,-175.5"/>
</g>
<!-- UserEditComponent -->
<g id="node13" class="node">
<title>UserEditComponent</title>
<polygon fill="#ffffb3" stroke="black" points="307.59,-122 176.41,-122 176.41,-86 307.59,-86 307.59,-122"/>
<text text-anchor="middle" x="242" y="-99.8" font-family="Times,serif" font-size="14.00">UserEditComponent</text>
</g>
<!-- UserEditComponent&#45;&gt;AppModule -->
<g id="edge13" class="edge">
<title>UserEditComponent&#45;&gt;AppModule</title>
<path fill="none" stroke="black" d="M242,-122.04C242,-143.66 242,-177 242,-177 242,-177 1046.13,-177 1046.13,-177"/>
<polygon fill="black" stroke="black" points="1046.13,-180.5 1056.13,-177 1046.13,-173.5 1046.13,-180.5"/>
</g>
<!-- AppComponent  -->
<g id="node16" class="node">
<title>AppComponent </title>
<polygon fill="#80b1d3" stroke="black" points="1152.44,-252 1043.56,-252 1043.56,-216 1152.44,-216 1152.44,-252"/>
<text text-anchor="middle" x="1098" y="-229.8" font-family="Times,serif" font-size="14.00">AppComponent </text>
</g>
<!-- AppModule&#45;&gt;AppComponent  -->
<g id="edge15" class="edge">
<title>AppModule&#45;&gt;AppComponent </title>
<path fill="none" stroke="black" stroke-dasharray="1,5" d="M1098,-187.11C1098,-187.11 1098,-205.99 1098,-205.99"/>
<polygon fill="black" stroke="black" points="1094.5,-205.99 1098,-215.99 1101.5,-205.99 1094.5,-205.99"/>
</g>
<!-- AppRoutingModule -->
<g id="node15" class="node">
<title>AppRoutingModule</title>
<polygon fill="#8dd3c7" stroke="black" points="152.27,-122 149.27,-126 128.27,-126 125.27,-122 23.73,-122 23.73,-86 152.27,-86 152.27,-122"/>
<text text-anchor="middle" x="88" y="-99.8" font-family="Times,serif" font-size="14.00">AppRoutingModule</text>
</g>
<!-- AppRoutingModule&#45;&gt;AppModule -->
<g id="edge14" class="edge">
<title>AppRoutingModule&#45;&gt;AppModule</title>
<path fill="none" stroke="black" d="M88,-122.09C88,-145.13 88,-182 88,-182 88,-182 1046.21,-182 1046.21,-182"/>
<polygon fill="black" stroke="black" points="1046.21,-185.5 1056.21,-182 1046.21,-178.5 1046.21,-185.5"/>
</g>
</g>
</svg>
